<svg width="33" height="32" viewBox="0 0 33 32" fill="none" xmlns="http://www.w3.org/2000/svg">
<path d="M12.4736 9.33334L12.2053 9.97208C11.7722 11.0032 11.6633 12.1418 11.8932 13.2364C12.2439 14.9065 13.5735 16.1964 15.2535 16.4964L15.4014 16.5228C15.9342 16.618 16.4796 16.618 17.0124 16.5228L17.1603 16.4964C18.8403 16.1964 20.1699 14.9065 20.5206 13.2364C20.7504 12.1418 20.6416 11.0032 20.2085 9.97208L19.9402 9.33334" stroke="white" stroke-width="1.5" stroke-linecap="round"/>
<path d="M27.1682 20.1906C26.408 23.5338 23.8093 26.1605 20.4769 26.9669C17.6763 27.6445 14.7381 27.6445 11.9375 26.9668C8.6051 26.1605 6.00642 23.5338 5.2462 20.1906C4.56694 17.2035 4.73214 14.0864 5.72331 11.1878L5.87056 10.7572C6.96116 7.56781 9.68562 5.21351 12.9994 4.59688L13.9069 4.42802C15.4274 4.14509 16.9871 4.14509 18.5076 4.42802L19.415 4.59688C22.7288 5.2135 25.4533 7.56781 26.5439 10.7572L26.6911 11.1878C27.6823 14.0864 27.8474 17.2035 27.1682 20.1906Z" stroke="white" stroke-width="1.5"/>
</svg>
